HIERARCHY
ROOT Hips
{
  OFFSET 5.72205e-005 65.662 3.42586
  CHANNELS 6 Xposition Yposition Zposition Zrotation Xrotation Yrotation
  JOINT Chest
  {
    OFFSET 0 8.7983 -4.7612
    CHANNELS 3 Zrotation Xrotation Yrotation
    JOINT Chest2
    {
      OFFSET 0 8.0291 0.4195
      CHANNELS 3 Zrotation Xrotation Yrotation
      JOINT Chest3
      {
        OFFSET 0 9.9351 -2.2114
        CHANNELS 3 Zrotation Xrotation Yrotation
        JOINT Neck
        {
          OFFSET 0 22.3885 -0.4656
          CHANNELS 3 Zrotation Xrotation Yrotation
          JOINT Head
          {
            OFFSET -0.0001 12.643 3.4389
            CHANNELS 3 Zrotation Xrotation Yrotation
            End Site
            {
              OFFSET 0.0001 17.6655 0.5274
            }
          }
        }
        JOINT LeftCollar
        {
          OFFSET 2.2603 21.606 7.4023
          CHANNELS 3 Zrotation Xrotation Yrotation
          JOINT LeftShoulder
          {
            OFFSET 13.5163 -1.1332 -5.0146
            CHANNELS 3 Zrotation Xrotation Yrotation
            JOINT LeftElbow
            {
              OFFSET -0.0995 -28.05 -0.2431
              CHANNELS 3 Zrotation Xrotation Yrotation
              JOINT LeftWrist
              {
                OFFSET 0.0679 -23.3996 -0.1402
                CHANNELS 3 Zrotation Xrotation Yrotation
                JOINT LeftFinger1
                {
                  OFFSET 0.7932 -9.069 2.5189
                  CHANNELS 3 Zrotation Xrotation Yrotation
                  JOINT LeftFinger11
                  {
                    OFFSET -0.8272 -3.3923 0.5977
                    CHANNELS 3 Zrotation Xrotation Yrotation
                    JOINT LeftFinger12
                    {
                      OFFSET -0.5649 -2.3158 0.4082
                      CHANNELS 3 Zrotation Xrotation Yrotation
                      End Site
                      {
                        OFFSET -0.4919 -1.6479 0.2673
                      }
                    }
                  }
                }
                JOINT LeftFinger2
                {
                  OFFSET 0.9159 -9.2044 0.2193
                  CHANNELS 3 Zrotation Xrotation Yrotation
                  JOINT LeftFinger21
                  {
                    OFFSET 0.0117 -4.1944 -0.0248
                    CHANNELS 3 Zrotation Xrotation Yrotation
                    JOINT LeftFinger22
                    {
                      OFFSET 0.0071 -2.3249 -0.0142
                      CHANNELS 3 Zrotation Xrotation Yrotation
                      End Site
                      {
                        OFFSET -0.1475 -2.0882 0.0028
                      }
                    }
                  }
                }
                JOINT LeftFinger3
                {
                  OFFSET 0.6113 -8.7231 -2.0637
                  CHANNELS 3 Zrotation Xrotation Yrotation
                  JOINT LeftFinger31
                  {
                    OFFSET -0.1927 -3.8059 -0.2383
                    CHANNELS 3 Zrotation Xrotation Yrotation
                    JOINT LeftFinger32
                    {
                      OFFSET -0.1091 -2.1688 -0.1362
                      CHANNELS 3 Zrotation Xrotation Yrotation
                      End Site
                      {
                        OFFSET -0.2358 -1.9176 -0.0906
                      }
                    }
                  }
                }
                JOINT LeftFinger4
                {
                  OFFSET -0.6151 -8.0947 -3.5641
                  CHANNELS 3 Zrotation Xrotation Yrotation
                  JOINT LeftFinger41
                  {
                    OFFSET -0.4882 -2.341 -0.6462
                    CHANNELS 3 Zrotation Xrotation Yrotation
                    JOINT LeftFinger42
                    {
                      OFFSET -0.3575 -1.7167 -0.4742
                      CHANNELS 3 Zrotation Xrotation Yrotation
                      End Site
                      {
                        OFFSET -0.4187 -1.5237 -0.3496
                      }
                    }
                  }
                }
                JOINT LeftFinger0
                {
                  OFFSET -1.42 -1.8761 1.4223
                  CHANNELS 3 Zrotation Xrotation Yrotation
                  JOINT LeftFinger01
                  {
                    OFFSET -1.1471 -3.4929 2.6334
                    CHANNELS 3 Zrotation Xrotation Yrotation
                    JOINT LeftFinger02
                    {
                      OFFSET -0.823 -2.3 1.6571
                      CHANNELS 3 Zrotation Xrotation Yrotation
                      End Site
                      {
                        OFFSET -0.5822 -1.6914 1.1582
                      }
                    }
                  }
                }
              }
            }
          }
        }
        JOINT RightCollar
        {
          OFFSET -2.2603 21.606 7.4023
          CHANNELS 3 Zrotation Xrotation Yrotation
          JOINT RightShoulder
          {
            OFFSET -13.5187 -1.1334 -5.0155
            CHANNELS 3 Zrotation Xrotation Yrotation
            JOINT RightElbow
            {
              OFFSET 0.0994 -28.0499 -0.2431
              CHANNELS 3 Zrotation Xrotation Yrotation
              JOINT RightWrist
              {
                OFFSET -0.0679 -23.3996 -0.1402
                CHANNELS 3 Zrotation Xrotation Yrotation
                JOINT RightFinger1
                {
                  OFFSET -0.7932 -9.0691 2.5189
                  CHANNELS 3 Zrotation Xrotation Yrotation
                  JOINT RightFinger11
                  {
                    OFFSET 0.8272 -3.3923 0.5977
                    CHANNELS 3 Zrotation Xrotation Yrotation
                    JOINT RightFinger12
                    {
                      OFFSET 0.565 -2.3158 0.4082
                      CHANNELS 3 Zrotation Xrotation Yrotation
                      End Site
                      {
                        OFFSET 0.4919 -1.6479 0.2673
                      }
                    }
                  }
                }
                JOINT RightFinger2
                {
                  OFFSET -0.916 -9.2044 0.2193
                  CHANNELS 3 Zrotation Xrotation Yrotation
                  JOINT RightFinger21
                  {
                    OFFSET -0.0117 -4.1944 -0.0248
                    CHANNELS 3 Zrotation Xrotation Yrotation
                    JOINT RightFinger22
                    {
                      OFFSET -0.0071 -2.3249 -0.0142
                      CHANNELS 3 Zrotation Xrotation Yrotation
                      End Site
                      {
                        OFFSET 0.1475 -2.0882 0.0028
                      }
                    }
                  }
                }
                JOINT RightFinger3
                {
                  OFFSET -0.6113 -8.7231 -2.0637
                  CHANNELS 3 Zrotation Xrotation Yrotation
                  JOINT RightFinger31
                  {
                    OFFSET 0.1927 -3.8059 -0.2383
                    CHANNELS 3 Zrotation Xrotation Yrotation
                    JOINT RightFinger32
                    {
                      OFFSET 0.1091 -2.1688 -0.1362
                      CHANNELS 3 Zrotation Xrotation Yrotation
                      End Site
                      {
                        OFFSET 0.2358 -1.9176 -0.0906
                      }
                    }
                  }
                }
                JOINT RightFinger4
                {
                  OFFSET 0.6151 -8.0947 -3.564
                  CHANNELS 3 Zrotation Xrotation Yrotation
                  JOINT RightFinger41
                  {
                    OFFSET 0.4882 -2.341 -0.6462
                    CHANNELS 3 Zrotation Xrotation Yrotation
                    JOINT RightFinger42
                    {
                      OFFSET 0.3574 -1.7166 -0.4742
                      CHANNELS 3 Zrotation Xrotation Yrotation
                      End Site
                      {
                        OFFSET 0.4187 -1.5237 -0.3496
                      }
                    }
                  }
                }
                JOINT RightFinger0
                {
                  OFFSET 1.4199 -1.8761 1.4221
                  CHANNELS 3 Zrotation Xrotation Yrotation
                  JOINT RightFinger01
                  {
                    OFFSET 1.1472 -3.4929 2.6336
                    CHANNELS 3 Zrotation Xrotation Yrotation
                    JOINT RightFinger02
                    {
                      OFFSET 0.8229 -2.3 1.6571
                      CHANNELS 3 Zrotation Xrotation Yrotation
                      End Site
                      {
                        OFFSET 0.5822 -1.6914 1.1582
                      }
                    }
                  }
                }
              }
            }
          }
        }
      }
    }
  }
  JOINT RightHip
  {
    OFFSET -9.412 3.9771 -0.7758
    CHANNELS 3 Zrotation Xrotation Yrotation
    JOINT RightKnee
    {
      OFFSET -0.7531 -40.938 0
      CHANNELS 3 Zrotation Xrotation Yrotation
      JOINT RightAnkle
      {
        OFFSET 0 -40.1986 0
        CHANNELS 3 Zrotation Xrotation Yrotation
        JOINT RightToe
        {
          OFFSET 0 -4.4182 9.239
          CHANNELS 3 Zrotation Xrotation Yrotation
          End Site
          {
            OFFSET 0 0 6.1981
          }
        }
      }
    }
  }
  JOINT LeftHip
  {
    OFFSET 9.4119 3.9773 -0.7758
    CHANNELS 3 Zrotation Xrotation Yrotation
    JOINT LeftKnee
    {
      OFFSET 0.7532 -40.9383 0
      CHANNELS 3 Zrotation Xrotation Yrotation
      JOINT LeftAnkle
      {
        OFFSET 0 -40.1986 0
        CHANNELS 3 Zrotation Xrotation Yrotation
        JOINT LeftToe
        {
          OFFSET 0 -4.4182 9.239
          CHANNELS 3 Zrotation Xrotation Yrotation
          End Site
          {
            OFFSET 0 0 6.1981
          }
        }
      }
    }
  }
}
MOTION
Frames:	5
Frame Time:	0.0333333
5.72205e-005 65.662 3.42586 0 0 -0 0 0 -0 0 0 -0 0 0 -0 0 0 -0 0 0 -0 0 0 -12.5014 88.1196 14.2451 10.6914 -0.00160068 -0.00239207 0.000740045 -8.4365e-005 7.00714e-005 -9.52055e-007 9.93923e-017 -1.98785e-016 -1.59028e-015 9.93923e-017 -5.96354e-016 -1.59028e-015 -9.93923e-017 -5.96354e-016 -1.59028e-015 9.93923e-017 -1.98785e-016 -1.59028e-015 -0.0128176 0.00232552 8.52707e-005 9.93923e-017 5.96354e-016 -0 9.93923e-017 -1.98785e-016 -1.59028e-015 -0.0160551 0.00299681 0.000857156 -2.48481e-016 0 3.18055e-015 9.93923e-017 -1.98785e-016 -1.59028e-015 -0.0125865 0.0031206 0.00282719 0 1.98785e-016 -0 9.93923e-017 -1.98785e-016 -1.59028e-015 9.93923e-017 -5.96354e-016 -1.59028e-015 -9.93923e-017 -5.96354e-016 -1.59028e-015 -0.865644 0.16582 7.03859 -88.0329 10.2057 -10.5567 0.0015593 -0.00248883 -0.000788628 7.87605e-005 4.10553e-005 1.24965e-005 -3.97569e-016 -7.95139e-016 3.18055e-015 -1.98785e-016 -3.97569e-016 3.18055e-015 -1.98785e-016 0 3.18055e-015 -3.97569e-016 -7.95139e-016 3.18055e-015 0.0129473 0.00231697 -8.70038e-005 9.93923e-017 -7.95139e-016 1.59028e-015 -3.97569e-016 -7.95139e-016 3.18055e-015 0.0163314 0.00303369 -0.000872333 3.97569e-016 7.95139e-016 -3.18055e-015 -3.97569e-016 -7.95139e-016 3.18055e-015 0.0145763 0.00367772 -0.00326275 9.93923e-017 -3.97569e-016 -0 -3.97569e-016 -7.95139e-016 3.18055e-015 -1.98785e-016 -3.97569e-016 3.18055e-015 -1.98785e-016 0 3.18055e-015 3.42482 1.32465 -0.0626183 0.000117508 0.717283 0.000978199 -3.4257 -2.04197 -0.0604716 6.47761e-025 0 -0 -3.42483 1.34017 0.0627307 -0.000193936 0.682302 -0.0013703 3.42574 -2.02253 0.0595886 -8.45714e-024 0 -7.40531e-025 
2.72748 26.1237 -11.986 -4.73683e-015 -18.0001 -180 -0.240147 6.53657 -0.160444 -0.466331 13.0738 -0.296021 -0.466333 13.0739 -0.296022 1.84575e-006 -0.571826 9.78575e-007 1.67459e-007 -0.645223 2.79813e-007 8.91195 -7.69479 -6.28595 14.2436 -18.298 15.1818 -43.3824 -46.9096 -23.7651 -1.77358 -8.4224 -3.0338 -4.77083e-015 3.18055e-015 -0 4.77083e-015 0 -3.18055e-015 1.59028e-015 6.36111e-015 4.77083e-015 -4.77083e-015 3.18055e-015 -0 -0.0128336 0.00233435 8.5532e-005 6.36111e-015 0 -0 -4.77083e-015 3.18055e-015 -0 -0.016045 0.00300023 0.000862164 -7.95139e-015 0 -0 -4.77083e-015 3.18055e-015 -0 -0.0125557 0.00311867 0.00282128 1.59028e-015 3.18055e-015 -1.59028e-015 -4.77083e-015 3.18055e-015 -0 4.77083e-015 0 -3.18055e-015 1.59028e-015 6.36111e-015 4.77083e-015 -1.36624 -10.6896 11.2377 -18.4891 -2.70069 -13.4811 57.4023 -50.7431 38.0935 -3.67212 -5.38441 3.84489 4.77083e-015 0 -0 6.36111e-015 6.36111e-015 4.77083e-015 1.59028e-015 1.26405e-007 -0 4.77083e-015 0 -0 0.0129196 0.00232009 -8.73916e-005 3.18055e-015 -6.36111e-015 3.18055e-015 4.77083e-015 0 -0 0.0163316 0.00303978 -0.000878236 1.11821e-007 1.45871e-007 1.87737e-006 4.77083e-015 0 -0 0.0146058 0.00368933 -0.00326381 -3.18055e-015 0 1.59028e-015 4.77083e-015 0 -0 6.36111e-015 6.36111e-015 4.77083e-015 1.59028e-015 1.26405e-007 -0 -28.3239 -5.91643 -7.59666 -93.1558 84.9451 89.1352 8.37416 28.1149 1.53697 4.94414e-006 -1.85692e-006 -2.11259e-006 108.028 -44.6596 118.687 50.1471 82.3517 -37.3897 -19.9546 12.8686 10.1251 -1.60476e-006 7.36764e-007 -3.09425e-007 
2.71696 26.1191 -11.454 -4.73731e-015 -17.9965 -180 -0.240004 6.65941 -0.160631 -0.465834 13.3194 -0.295986 -0.465836 13.3195 -0.295986 1.00951e-006 -1.14309 7.28916e-007 -9.2231e-008 -1.28761 5.54312e-008 9.18669 -9.20109 -6.2338 14.2436 -18.298 15.1818 -43.3824 -46.9096 -23.7651 -1.73741 -7.65153 -2.42807 -3.18055e-015 1.27222e-014 -0 -3.18055e-015 1.59028e-014 -0 -6.36111e-015 9.54166e-015 3.18055e-015 -3.18055e-015 1.27222e-014 -0 -0.0128056 0.0023145 9.17363e-005 5.01281e-006 4.43004e-006 -2.90733e-006 -3.18055e-015 1.27222e-014 -0 -0.0160511 0.00299436 0.000856044 1.59028e-015 -3.49861e-014 -0 -3.18055e-015 1.27222e-014 -0 -0.0125865 0.00311745 0.00282254 -3.18055e-015 0 -3.18055e-015 -3.18055e-015 1.27222e-014 -0 -3.18055e-015 1.59028e-014 -0 -6.36111e-015 9.54166e-015 3.18055e-015 -1.64655 -12.1545 11.2564 -18.4891 -2.70068 -13.4811 57.4023 -50.7431 38.0935 -3.8157 -4.40776 3.21902 -3.18055e-015 3.6745e-006 1.59028e-015 7.0332e-007 2.88613e-006 -4.55396e-007 1.03656e-007 1.34809e-006 1.87817e-006 -3.18055e-015 3.6745e-006 1.59028e-015 0.0129512 0.00232418 -9.1816e-005 3.98675e-006 6.01861e-006 5.54296e-007 -3.18055e-015 3.6745e-006 1.59028e-015 0.0163561 0.00305366 -0.000875835 1.03463e-007 3.7359e-007 1.87818e-006 -3.18055e-015 3.6745e-006 1.59028e-015 0.0145909 0.00369148 -0.00326249 8.06759e-007 3.6213e-006 1.42285e-006 -3.18055e-015 3.6745e-006 1.59028e-015 7.0332e-007 2.88613e-006 -4.55396e-007 1.03656e-007 1.34809e-006 1.87817e-006 -28.2661 -6.4088 -7.91693 -100.257 84.8505 95.8662 8.35877 27.9927 1.17556 -1.19271e-015 3.18055e-015 4.37326e-015 108.062 -44.8865 118.877 46.2279 81.9875 -33.5338 -19.6347 13.2639 10.5003 -6.05422e-006 1.35548e-005 1.11459e-005 
2.70652 26.115 -10.9215 -4.73731e-015 -17.9965 -180 -0.239847 6.78237 -0.16081 -0.465312 13.5653 -0.295937 -0.465314 13.5654 -0.295938 4.10111e-008 -1.71453 -3.2934e-008 3.1011e-007 -1.93024 -1.23079e-007 9.46465 -10.7101 -6.17394 14.2435 -18.298 15.1818 -43.3824 -46.9096 -23.7651 -1.70956 -6.87975 -1.82341 -4.49667e-006 -7.11102e-007 3.70874e-006 6.62252e-006 -2.24391e-006 -6.36076e-006 -6.36111e-015 -3.18055e-015 -4.77083e-015 -4.49667e-006 -7.11102e-007 3.70874e-006 -0.0128098 0.00232919 8.51917e-005 -1.43125e-014 -6.36111e-015 2.22639e-014 -4.49667e-006 -7.11102e-007 3.70874e-006 -0.0160311 0.00299042 0.000847335 3.18055e-015 -6.36111e-015 -1.59028e-015 -4.49667e-006 -7.11102e-007 3.70874e-006 -0.0125988 0.00312541 0.00282664 -4.77083e-015 -6.36111e-015 6.36111e-015 -4.49667e-006 -7.11102e-007 3.70874e-006 6.62252e-006 -2.24391e-006 -6.36076e-006 -6.36111e-015 -3.18055e-015 -4.77083e-015 -1.92854 -13.6222 11.2679 -18.4891 -2.70066 -13.4811 57.4023 -50.7431 38.0935 -3.94852 -3.42848 2.59562 -8.82781e-032 3.18055e-015 1.59028e-015 3.18055e-015 3.18055e-015 -6.36111e-015 1.59028e-015 6.36111e-015 -4.77083e-015 -8.82781e-032 3.18055e-015 1.59028e-015 0.0128959 0.00231023 -8.7657e-005 -4.14101e-006 8.603e-007 4.5893e-006 -8.82781e-032 3.18055e-015 1.59028e-015 0.0163201 0.00303482 -0.000875992 -3.18055e-015 3.18055e-015 -0 -8.82781e-032 3.18055e-015 1.59028e-015 0.0146001 0.00368656 -0.00326818 -1.59028e-015 -6.36111e-015 3.18055e-015 -8.82781e-032 3.18055e-015 1.59028e-015 3.18055e-015 3.18055e-015 -6.36111e-015 1.59028e-015 6.36111e-015 -4.77083e-015 -28.2104 -6.90126 -8.23733 -107.02 84.6845 102.259 8.34286 27.8709 0.814469 2.01905e-006 -1.98983e-006 1.57175e-006 108.098 -45.1133 119.07 42.6641 81.5898 -30.0324 -19.3165 13.6609 10.8743 -9.12653e-007 2.52429e-006 6.03447e-006 
2.69617 26.1113 -10.3892 -4.73731e-015 -17.9965 -180 -0.239676 6.90542 -0.160981 -0.464766 13.8114 -0.295877 -0.464768 13.8115 -0.295878 -3.7999e-007 -2.28609 -1.381e-007 -5.24596e-007 -2.57301 -1.23383e-007 9.74617 -12.2213 -6.10616 14.2436 -18.298 15.1818 -43.3824 -46.9096 -23.7651 -1.68991 -6.1072 -1.21965 1.59028e-015 -9.54166e-015 1.59028e-015 -1.59028e-015 -9.54166e-015 -3.18055e-015 -4.77083e-015 -9.54166e-015 -0 1.59028e-015 -9.54166e-015 1.59028e-015 -0.0128266 0.00232376 8.57621e-005 -9.54166e-015 0 3.18055e-015 1.59028e-015 -9.54166e-015 1.59028e-015 -0.0160232 0.00298253 0.000854851 -4.77083e-015 -6.36111e-015 1.59028e-015 1.59028e-015 -9.54166e-015 1.59028e-015 -0.012594 0.00312005 0.00282756 -1.05934e-030 1.27222e-014 4.77083e-015 1.59028e-015 -9.54166e-015 1.59028e-015 -1.59028e-015 -9.54166e-015 -3.18055e-015 -4.77083e-015 -9.54166e-015 -0 -2.21251 -15.0922 11.272 -18.4891 -2.70067 -13.4811 57.4023 -50.7431 38.0935 -4.07066 -2.44689 1.97444 7.51139e-006 -1.17733e-006 -1.65134e-006 8.82781e-032 -3.18055e-015 1.59028e-015 -1.59028e-015 0 4.77083e-015 7.51139e-006 -1.17733e-006 -1.65134e-006 0.0129703 0.00232317 -8.59335e-005 -1.59028e-015 -6.36111e-015 3.18055e-015 7.51139e-006 -1.17733e-006 -1.65134e-006 0.0162985 0.00303369 -0.000872169 1.59028e-015 -3.18055e-015 -0 7.51139e-006 -1.17733e-006 -1.65134e-006 0.0146103 0.00368925 -0.0032703 -3.18055e-015 -6.36111e-015 -0 7.51139e-006 -1.17733e-006 -1.65134e-006 8.82781e-032 -3.18055e-015 1.59028e-015 -1.59028e-015 0 4.77083e-015 -28.1566 -7.39386 -8.55792 -113.315 84.4533 108.182 8.32648 27.7492 0.453731 6.72656e-007 6.48316e-007 5.24373e-007 108.136 -45.3403 119.266 39.432 81.1633 -26.8621 -19 14.0596 11.2473 -5.01528e-007 1.87731e-006 1.46902e-006 
